<svg xmlns="http://www.w3.org/2000/svg" width="512" height="512" viewBox="0 0 512 512" role="img" aria-label="Tidemark">
  <defs>
    <linearGradient id="tile" x1="0" y1="0" x2="0" y2="1"><stop offset="0" stop-color="#13191c"/><stop offset="1" stop-color="#182024"/></linearGradient>
    <clipPath id="clip"><rect x="12" y="12" width="488" height="488" rx="96"/></clipPath>
  </defs>
  <g clip-path="url(#clip)">
    <rect x="12" y="12" width="488" height="488" fill="url(#tile)"/>
    <path d="M116,205 q35,-48 70,0 t70,0 t70,0 t70,0" fill="none" stroke="#63f2ab" stroke-width="38" opacity="0.14" stroke-linecap="round"/><path d="M116,205 q35,-48 70,0 t70,0 t70,0 t70,0" fill="none" stroke="#63f2ab" stroke-width="16" stroke-linecap="round"/>
    <path d="M116,301 q35,-48 70,0 t70,0 t70,0 t70,0" fill="none" stroke="#6bdcff" stroke-width="14" opacity="0.5" stroke-linecap="round"/>
    <path d="M116,397 q35,-48 70,0 t70,0 t70,0 t70,0" fill="none" stroke="#63736f" stroke-width="14" opacity="0.55" stroke-linecap="round"/>
  </g>
  <rect x="12" y="12" width="488" height="488" rx="96" fill="none" stroke="#2a363d" stroke-width="6"/>
</svg>
