<svg xmlns="http://www.w3.org/2000/svg" viewBox="0 0 720 200" role="img" aria-label="Tidemark">
  <defs>
    <linearGradient id="tileD" x1="0" y1="0" x2="0" y2="1"><stop offset="0" stop-color="#13191c"/><stop offset="1" stop-color="#182024"/></linearGradient>
    <clipPath id="tileClipD"><rect x="28" y="32" width="136" height="136" rx="30"/></clipPath>
  </defs>
  <rect x="2" y="2" width="716" height="196" rx="8" fill="#0e1214" stroke="#2a363d"/>
  <g clip-path="url(#tileClipD)">
    <rect x="28" y="32" width="136" height="136" fill="url(#tileD)"/>
    <rect x="28" y="104" width="136" height="64" fill="#63f2ab" opacity="0.06"/>
    <text x="74" y="132" text-anchor="middle" font-family="'JetBrains Mono',ui-monospace,monospace" font-size="78" font-weight="600" fill="#b4c3bd">{</text>
    <text x="120" y="132" text-anchor="middle" font-family="'JetBrains Mono',ui-monospace,monospace" font-size="78" font-weight="600" fill="#b4c3bd">}</text>
    <line x1="60" y1="104" x2="132" y2="104" stroke="#63f2ab" stroke-width="9" opacity="0.14"/>
    <line x1="60" y1="104" x2="132" y2="104" stroke="#63f2ab" stroke-width="3.5"/>
  </g>
  <rect x="28" y="32" width="136" height="136" rx="30" fill="none" stroke="#2a363d" stroke-width="2"/>
  <text x="196" y="98" font-family="Inter,'Segoe UI',system-ui,sans-serif" font-size="60" font-weight="800" letter-spacing="-2" fill="#dce4df">Tidemark</text>
  <line x1="200" y1="120" x2="470" y2="120" stroke="#63f2ab" stroke-width="7" opacity="0.13"/>
  <line x1="200" y1="120" x2="470" y2="120" stroke="#63f2ab" stroke-width="2"/>
  <text x="200" y="150" font-family="'JetBrains Mono',ui-monospace,monospace" font-size="17"><tspan fill="#63f2ab">{{host}}</tspan><tspan fill="#63736f"> &#8594; </tspan><tspan fill="#dce4df">prod-db-01</tspan></text>
  <text x="200" y="174" font-family="'JetBrains Mono',ui-monospace,monospace" font-size="9.5" letter-spacing="1.5" fill="#63736f">TEMPLATE VARIABLES, RESOLVED FROM YAML FRONTMATTER</text>
  <g font-family="'JetBrains Mono',ui-monospace,monospace" font-size="10.5" letter-spacing="1">
    <circle cx="556" cy="70" r="4" fill="#63f2ab"/><text x="568" y="74" fill="#879994">RESOLVED</text>
    <circle cx="556" cy="98" r="4" fill="#f0c674"/><text x="568" y="102" fill="#879994">DEFAULT</text>
    <circle cx="556" cy="126" r="4" fill="#ff6e7a"/><text x="568" y="130" fill="#879994">MISSING</text>
  </g>
</svg>
