<svg xmlns="http://www.w3.org/2000/svg" viewBox="0 0 720 200" role="img" aria-label="Tidemark">
  <defs><linearGradient id="ltdark" x1="0" y1="0" x2="0" y2="1"><stop offset="0" stop-color="#13191c"/><stop offset="1" stop-color="#182024"/></linearGradient></defs>
  <rect x="2" y="2" width="716" height="196" rx="10" fill="#0e1214" stroke="#2a363d"/>
  <rect x="34" y="40" width="120" height="120" rx="27" fill="url(#ltdark)" stroke="#2a363d" stroke-width="2"/>
  <path d="M58,86 q9,-12 18,0 t18,0 t18,0 t18,0" fill="none" stroke="#63f2ab" stroke-width="9" opacity="0.14" stroke-linecap="round"/><path d="M58,86 q9,-12 18,0 t18,0 t18,0 t18,0" fill="none" stroke="#63f2ab" stroke-width="4" stroke-linecap="round"/><path d="M58,109 q9,-12 18,0 t18,0 t18,0 t18,0" fill="none" stroke="#6bdcff" stroke-width="3.6" opacity="0.5" stroke-linecap="round"/><path d="M58,132 q9,-12 18,0 t18,0 t18,0 t18,0" fill="none" stroke="#63736f" stroke-width="3.6" opacity="0.55" stroke-linecap="round"/>
  <g fill="#dce4df"><path d="M66 1202L66 1490L1320 1490L1320 1202L869 1202L869 0L517 0L517 1202Z" transform="translate(192.00,105.00) scale(0.028320,-0.028320)"/><path d="M115 0L115 1118L464 1118L464 0ZM289 1249Q215 1249 162 1298.5Q109 1348 109 1417Q109 1487 162 1536Q215 1585 289 1585Q364 1585 417 1536.5Q470 1488 470 1417Q470 1347 417 1298Q364 1249 289 1249Z" transform="translate(229.25,105.00) scale(0.028320,-0.028320)"/><path d="M520 -16Q396 -16 294 48.5Q192 113 132 240.5Q72 368 72 558Q72 754 134.5 881.5Q197 1009 298.5 1070.5Q400 1132 517 1132Q606 1132 669 1101.5Q732 1071 772.5 1024Q813 977 834 926L842 926L842 1490L1190 1490L1190 0L846 0L846 181L834 181Q812 131 770.5 86Q729 41 667.5 12.5Q606 -16 520 -16ZM639 256Q705 256 752.5 293.5Q800 331 825 399Q850 467 850 558Q850 651 825 718.5Q800 786 752.5 822.5Q705 859 639 859Q572 859 525.5 821.5Q479 784 455 716.5Q431 649 431 558Q431 468 455 399.5Q479 331 525.5 293.5Q572 256 639 256Z" transform="translate(243.68,105.00) scale(0.028320,-0.028320)"/><path d="M636 -21Q461 -21 334 48.5Q207 118 139.5 247Q72 376 72 555Q72 727 139.5 857Q207 987 331 1059.5Q455 1132 623 1132Q741 1132 839.5 1095Q938 1058 1010.5 985.5Q1083 913 1122.5 807Q1162 701 1162 562L1162 474L196 474L196 677L996 677L833 629Q833 707 809.5 763Q786 819 740 849Q694 879 626 879Q558 879 511 848.5Q464 818 439.5 763.5Q415 709 415 636L415 490Q415 404 443.5 346.5Q472 289 523 260.5Q574 232 642 232Q689 232 727.5 245Q766 258 793.5 284Q821 310 835 347L1146 296Q1118 200 1049.5 128.5Q981 57 876.5 18Q772 -21 636 -21Z" transform="translate(278.66,105.00) scale(0.028320,-0.028320)"/><path d="M115 0L115 1118L436 1118L456 828L432 828Q458 937 509.5 1004Q561 1071 629.5 1102Q698 1133 774 1133Q894 1133 967.5 1056Q1041 979 1081 804L1042 804Q1069 921 1127 994Q1185 1067 1263 1100Q1341 1133 1425 1133Q1530 1133 1610.5 1087.5Q1691 1042 1737 957.5Q1783 873 1783 754L1783 0L1435 0L1435 675Q1435 760 1390.5 804Q1346 848 1277 848Q1228 848 1191.5 826Q1155 804 1136 764.5Q1117 725 1117 671L1117 0L782 0L782 680Q782 757 739 802.5Q696 848 626 848Q578 848 541.5 826Q505 804 484.5 763.5Q464 723 464 664L464 0Z" transform="translate(311.50,105.00) scale(0.028320,-0.028320)"/><path d="M428 -20Q321 -20 237.5 16.5Q154 53 107 126.5Q60 200 60 310Q60 403 92.5 467Q125 531 183 571Q241 611 316 632Q391 653 476 660Q571 668 629 677.5Q687 687 714 706Q741 725 741 759L741 763Q741 802 723 829Q705 856 671 870Q637 884 589 884Q541 884 503.5 870Q466 856 442 830Q418 804 408 769L92 810Q114 906 178.5 978.5Q243 1051 347.5 1091.5Q452 1132 592 1132Q696 1132 786.5 1107.5Q877 1083 945 1035.5Q1013 988 1051 918.5Q1089 849 1089 759L1089 0L761 0L761 157L752 157Q722 99 675.5 60Q629 21 567.5 0.5Q506 -20 428 -20ZM534 211Q593 211 640.5 235Q688 259 716 301Q744 343 744 398L744 505Q729 497 706.5 490Q684 483 657 477.5Q630 472 603 467.5Q576 463 551 459Q500 452 464 435Q428 418 409 391Q390 364 390 326Q390 289 409 263.5Q428 238 460 224.5Q492 211 534 211Z" transform="translate(363.28,105.00) scale(0.028320,-0.028320)"/><path d="M115 0L115 1118L454 1118L454 914L466 914Q496 1025 565.5 1078.5Q635 1132 727 1132Q751 1132 777.5 1129Q804 1126 826 1120L826 816Q801 825 760.5 829.5Q720 834 688 834Q624 834 573 805.5Q522 777 493 727Q464 677 464 610L464 0Z" transform="translate(395.40,105.00) scale(0.028320,-0.028320)"/><path d="M430 297L430 714L480 714L800 1118L1197 1118L728 545L636 545ZM115 0L115 1490L464 1490L464 0ZM810 0L512 467L742 715L1213 0Z" transform="translate(418.67,105.00) scale(0.028320,-0.028320)"/></g>
  <path d="M196,128 q13,-11 26,0 t26,0 t26,0 t26,0 t26,0 t26,0 t26,0 t26,0 t26,0 t26,0" fill="none" stroke="#63f2ab" stroke-width="7" opacity="0.14" stroke-linecap="round"/><path d="M196,128 q13,-11 26,0 t26,0 t26,0 t26,0 t26,0 t26,0 t26,0 t26,0 t26,0 t26,0" fill="none" stroke="#63f2ab" stroke-width="2.2" stroke-linecap="round"/>
  <g fill="#63736f"><path d="M242 0L242 623L48 623L48 731L552 731L552 623L358 623L358 0Z" transform="translate(196.00,160.00) scale(0.012000,-0.012000)"/><path d="M91 0L91 730L524 730L524 628L206 628L206 429L489 429L489 327L206 327L206 102L524 102L524 0Z" transform="translate(205.70,160.00) scale(0.012000,-0.012000)"/><path d="M61 0L61 730L202 730L274 497Q285 463 292 433.5Q299 404 302 390Q305 404 312 433.5Q319 463 329 497L398 730L539 730L539 0L429 0L429 236Q429 285 432 343Q435 401 439.5 460Q444 519 449.5 572.5Q455 626 459 665L356 316L246 316L141 665Q146 627 151 575.5Q156 524 160.5 465.5Q165 407 168 348Q171 289 171 236L171 0Z" transform="translate(215.40,160.00) scale(0.012000,-0.012000)"/><path d="M80 0L80 730L322 730Q394 730 447 702.5Q500 675 529.5 625Q559 575 559 507Q559 441 529.5 390.5Q500 340 447 312.5Q394 285 322 285L197 285L197 0ZM197 390L322 390Q376 390 408.5 422Q441 454 441 507Q441 562 408.5 593.5Q376 625 322 625L197 625Z" transform="translate(225.10,160.00) scale(0.012000,-0.012000)"/><path d="M106 0L106 730L223 730L223 108L537 108L537 0Z" transform="translate(234.80,160.00) scale(0.012000,-0.012000)"/><path d="M39 0L224 730L376 730L561 0L443 0L400 181L200 181L158 0ZM221 277L378 277L332 480Q320 532 311.5 573Q303 614 300 630Q297 614 289 573.5Q281 533 269 481Z" transform="translate(244.50,160.00) scale(0.012000,-0.012000)"/><path d="M242 0L242 623L48 623L48 731L552 731L552 623L358 623L358 0Z" transform="translate(254.20,160.00) scale(0.012000,-0.012000)"/><path d="M91 0L91 730L524 730L524 628L206 628L206 429L489 429L489 327L206 327L206 102L524 102L524 0Z" transform="translate(263.90,160.00) scale(0.012000,-0.012000)"/><path d="M224 0L39 730L159 730L273 249Q283 210 291 169Q299 128 303 103Q307 128 314.5 169Q322 210 332 250L444 730L561 730L376 0Z" transform="translate(283.30,160.00) scale(0.012000,-0.012000)"/><path d="M39 0L224 730L376 730L561 0L443 0L400 181L200 181L158 0ZM221 277L378 277L332 480Q320 532 311.5 573Q303 614 300 630Q297 614 289 573.5Q281 533 269 481Z" transform="translate(293.00,160.00) scale(0.012000,-0.012000)"/><path d="M80 0L80 730L310 730Q381 730 433.5 703.5Q486 677 515 628.5Q544 580 544 515Q544 442 507 387.5Q470 333 407 311L554 0L423 0L292 295L196 295L196 0ZM196 398L310 398Q363 398 394.5 428.5Q426 459 426 512Q426 565 394.5 596Q363 627 310 627L196 627Z" transform="translate(302.70,160.00) scale(0.012000,-0.012000)"/><path d="M94 0L94 103L241 103L241 627L94 627L94 730L506 730L506 627L359 627L359 103L506 103L506 0Z" transform="translate(312.40,160.00) scale(0.012000,-0.012000)"/><path d="M39 0L224 730L376 730L561 0L443 0L400 181L200 181L158 0ZM221 277L378 277L332 480Q320 532 311.5 573Q303 614 300 630Q297 614 289 573.5Q281 533 269 481Z" transform="translate(322.10,160.00) scale(0.012000,-0.012000)"/><path d="M81 0L81 730L300 730Q405 730 466 680Q527 630 527 542Q527 493 505 456.5Q483 420 445 400Q407 380 358 380L358 387Q412 388 453.5 367Q495 346 519 305Q543 264 543 207Q543 144 515 97Q487 50 435.5 25Q384 0 313 0ZM194 99L305 99Q361 99 394 129Q427 159 427 212Q427 266 394 298.5Q361 331 305 331L194 331ZM194 427L299 427Q351 427 380.5 454.5Q410 482 410 529Q410 577 380.5 604Q351 631 300 631L194 631Z" transform="translate(331.80,160.00) scale(0.012000,-0.012000)"/><path d="M106 0L106 730L223 730L223 108L537 108L537 0Z" transform="translate(341.50,160.00) scale(0.012000,-0.012000)"/><path d="M91 0L91 730L524 730L524 628L206 628L206 429L489 429L489 327L206 327L206 102L524 102L524 0Z" transform="translate(351.20,160.00) scale(0.012000,-0.012000)"/><path d="M302 -10Q228 -10 174 15Q120 40 90.5 86Q61 132 61 194L177 194Q177 147 211 120Q245 93 304 93Q359 93 391 119.5Q423 146 423 193Q423 232 401 260.5Q379 289 338 299L250 324Q167 347 122 403.5Q77 460 77 538Q77 600 104.5 645Q132 690 182.5 715.5Q233 741 302 741Q406 741 467 686.5Q528 632 529 541L412 541Q412 586 383 612Q354 638 301 638Q250 638 221.5 613.5Q193 589 193 546Q193 506 214.5 478Q236 450 276 438L367 412Q450 390 494.5 334Q539 278 539 197Q539 135 509.5 88.5Q480 42 427 16Q374 -10 302 -10Z" transform="translate(360.90,160.00) scale(0.012000,-0.012000)"/><path d="M154 -160L234 151L386 151L256 -160Z" transform="translate(370.60,160.00) scale(0.012000,-0.012000)"/><path d="M80 0L80 730L310 730Q381 730 433.5 703.5Q486 677 515 628.5Q544 580 544 515Q544 442 507 387.5Q470 333 407 311L554 0L423 0L292 295L196 295L196 0ZM196 398L310 398Q363 398 394.5 428.5Q426 459 426 512Q426 565 394.5 596Q363 627 310 627L196 627Z" transform="translate(390.00,160.00) scale(0.012000,-0.012000)"/><path d="M91 0L91 730L524 730L524 628L206 628L206 429L489 429L489 327L206 327L206 102L524 102L524 0Z" transform="translate(399.70,160.00) scale(0.012000,-0.012000)"/><path d="M302 -10Q228 -10 174 15Q120 40 90.5 86Q61 132 61 194L177 194Q177 147 211 120Q245 93 304 93Q359 93 391 119.5Q423 146 423 193Q423 232 401 260.5Q379 289 338 299L250 324Q167 347 122 403.5Q77 460 77 538Q77 600 104.5 645Q132 690 182.5 715.5Q233 741 302 741Q406 741 467 686.5Q528 632 529 541L412 541Q412 586 383 612Q354 638 301 638Q250 638 221.5 613.5Q193 589 193 546Q193 506 214.5 478Q236 450 276 438L367 412Q450 390 494.5 334Q539 278 539 197Q539 135 509.5 88.5Q480 42 427 16Q374 -10 302 -10Z" transform="translate(409.40,160.00) scale(0.012000,-0.012000)"/><path d="M300 -10Q231 -10 180.5 16Q130 42 103 90.5Q76 139 76 204L76 526Q76 592 103 640Q130 688 180.5 714Q231 740 300 740Q370 740 420 714Q470 688 497 640Q524 592 524 526L524 204Q524 139 497 90.5Q470 42 420 16Q370 -10 300 -10ZM300 93Q353 93 380.5 122Q408 151 408 204L408 526Q408 580 380.5 608.5Q353 637 300 637Q247 637 219.5 608.5Q192 580 192 526L192 204Q192 151 220 122Q248 93 300 93Z" transform="translate(419.10,160.00) scale(0.012000,-0.012000)"/><path d="M106 0L106 730L223 730L223 108L537 108L537 0Z" transform="translate(428.80,160.00) scale(0.012000,-0.012000)"/><path d="M224 0L39 730L159 730L273 249Q283 210 291 169Q299 128 303 103Q307 128 314.5 169Q322 210 332 250L444 730L561 730L376 0Z" transform="translate(438.50,160.00) scale(0.012000,-0.012000)"/><path d="M91 0L91 730L524 730L524 628L206 628L206 429L489 429L489 327L206 327L206 102L524 102L524 0Z" transform="translate(448.20,160.00) scale(0.012000,-0.012000)"/><path d="M79 0L79 730L289 730Q363 730 416.5 702Q470 674 500 623.5Q530 573 530 504L530 227Q530 158 500 107Q470 56 416.5 28Q363 0 289 0ZM196 107L289 107Q347 107 380 139Q413 171 413 227L413 504Q413 559 380 591Q347 623 289 623L196 623Z" transform="translate(457.90,160.00) scale(0.012000,-0.012000)"/><path d="M84 0L84 731L532 731L532 623L198 623L198 416L506 416L506 308L200 308L200 0Z" transform="translate(477.30,160.00) scale(0.012000,-0.012000)"/><path d="M80 0L80 730L310 730Q381 730 433.5 703.5Q486 677 515 628.5Q544 580 544 515Q544 442 507 387.5Q470 333 407 311L554 0L423 0L292 295L196 295L196 0ZM196 398L310 398Q363 398 394.5 428.5Q426 459 426 512Q426 565 394.5 596Q363 627 310 627L196 627Z" transform="translate(487.00,160.00) scale(0.012000,-0.012000)"/><path d="M300 -10Q231 -10 180.5 16Q130 42 103 90.5Q76 139 76 204L76 526Q76 592 103 640Q130 688 180.5 714Q231 740 300 740Q370 740 420 714Q470 688 497 640Q524 592 524 526L524 204Q524 139 497 90.5Q470 42 420 16Q370 -10 300 -10ZM300 93Q353 93 380.5 122Q408 151 408 204L408 526Q408 580 380.5 608.5Q353 637 300 637Q247 637 219.5 608.5Q192 580 192 526L192 204Q192 151 220 122Q248 93 300 93Z" transform="translate(496.70,160.00) scale(0.012000,-0.012000)"/><path d="M61 0L61 730L202 730L274 497Q285 463 292 433.5Q299 404 302 390Q305 404 312 433.5Q319 463 329 497L398 730L539 730L539 0L429 0L429 236Q429 285 432 343Q435 401 439.5 460Q444 519 449.5 572.5Q455 626 459 665L356 316L246 316L141 665Q146 627 151 575.5Q156 524 160.5 465.5Q165 407 168 348Q171 289 171 236L171 0Z" transform="translate(506.40,160.00) scale(0.012000,-0.012000)"/><path d="M242 0L242 267L26 730L147 730L269 465Q282 437 290.5 411Q299 385 302 370Q305 385 313.5 411Q322 437 334 465L453 730L574 730L358 267L358 0Z" transform="translate(525.80,160.00) scale(0.012000,-0.012000)"/><path d="M39 0L224 730L376 730L561 0L443 0L400 181L200 181L158 0ZM221 277L378 277L332 480Q320 532 311.5 573Q303 614 300 630Q297 614 289 573.5Q281 533 269 481Z" transform="translate(535.50,160.00) scale(0.012000,-0.012000)"/><path d="M61 0L61 730L202 730L274 497Q285 463 292 433.5Q299 404 302 390Q305 404 312 433.5Q319 463 329 497L398 730L539 730L539 0L429 0L429 236Q429 285 432 343Q435 401 439.5 460Q444 519 449.5 572.5Q455 626 459 665L356 316L246 316L141 665Q146 627 151 575.5Q156 524 160.5 465.5Q165 407 168 348Q171 289 171 236L171 0Z" transform="translate(545.20,160.00) scale(0.012000,-0.012000)"/><path d="M106 0L106 730L223 730L223 108L537 108L537 0Z" transform="translate(554.90,160.00) scale(0.012000,-0.012000)"/><path d="M84 0L84 731L532 731L532 623L198 623L198 416L506 416L506 308L200 308L200 0Z" transform="translate(574.30,160.00) scale(0.012000,-0.012000)"/><path d="M80 0L80 730L310 730Q381 730 433.5 703.5Q486 677 515 628.5Q544 580 544 515Q544 442 507 387.5Q470 333 407 311L554 0L423 0L292 295L196 295L196 0ZM196 398L310 398Q363 398 394.5 428.5Q426 459 426 512Q426 565 394.5 596Q363 627 310 627L196 627Z" transform="translate(584.00,160.00) scale(0.012000,-0.012000)"/><path d="M300 -10Q231 -10 180.5 16Q130 42 103 90.5Q76 139 76 204L76 526Q76 592 103 640Q130 688 180.5 714Q231 740 300 740Q370 740 420 714Q470 688 497 640Q524 592 524 526L524 204Q524 139 497 90.5Q470 42 420 16Q370 -10 300 -10ZM300 93Q353 93 380.5 122Q408 151 408 204L408 526Q408 580 380.5 608.5Q353 637 300 637Q247 637 219.5 608.5Q192 580 192 526L192 204Q192 151 220 122Q248 93 300 93Z" transform="translate(593.70,160.00) scale(0.012000,-0.012000)"/><path d="M77 0L77 730L221 730L429 132Q427 162 423.5 203.5Q420 245 418 289.5Q416 334 416 369L416 730L523 730L523 0L379 0L172 598Q175 571 177.5 531Q180 491 182 448.5Q184 406 184 370L184 0Z" transform="translate(603.40,160.00) scale(0.012000,-0.012000)"/><path d="M242 0L242 623L48 623L48 731L552 731L552 623L358 623L358 0Z" transform="translate(613.10,160.00) scale(0.012000,-0.012000)"/><path d="M61 0L61 730L202 730L274 497Q285 463 292 433.5Q299 404 302 390Q305 404 312 433.5Q319 463 329 497L398 730L539 730L539 0L429 0L429 236Q429 285 432 343Q435 401 439.5 460Q444 519 449.5 572.5Q455 626 459 665L356 316L246 316L141 665Q146 627 151 575.5Q156 524 160.5 465.5Q165 407 168 348Q171 289 171 236L171 0Z" transform="translate(622.80,160.00) scale(0.012000,-0.012000)"/><path d="M39 0L224 730L376 730L561 0L443 0L400 181L200 181L158 0ZM221 277L378 277L332 480Q320 532 311.5 573Q303 614 300 630Q297 614 289 573.5Q281 533 269 481Z" transform="translate(632.50,160.00) scale(0.012000,-0.012000)"/><path d="M242 0L242 623L48 623L48 731L552 731L552 623L358 623L358 0Z" transform="translate(642.20,160.00) scale(0.012000,-0.012000)"/><path d="M242 0L242 623L48 623L48 731L552 731L552 623L358 623L358 0Z" transform="translate(651.90,160.00) scale(0.012000,-0.012000)"/><path d="M91 0L91 730L524 730L524 628L206 628L206 429L489 429L489 327L206 327L206 102L524 102L524 0Z" transform="translate(661.60,160.00) scale(0.012000,-0.012000)"/><path d="M80 0L80 730L310 730Q381 730 433.5 703.5Q486 677 515 628.5Q544 580 544 515Q544 442 507 387.5Q470 333 407 311L554 0L423 0L292 295L196 295L196 0ZM196 398L310 398Q363 398 394.5 428.5Q426 459 426 512Q426 565 394.5 596Q363 627 310 627L196 627Z" transform="translate(671.30,160.00) scale(0.012000,-0.012000)"/></g>
</svg>
