<svg xmlns="http://www.w3.org/2000/svg" viewBox="0 0 720 200" role="img" aria-label="Tidemark">
  <defs>
    <linearGradient id="tileL" x1="0" y1="0" x2="0" y2="1"><stop offset="0" stop-color="#e2eae5"/><stop offset="1" stop-color="#d6e1db"/></linearGradient>
    <clipPath id="tileClipL"><rect x="28" y="32" width="136" height="136" rx="30"/></clipPath>
  </defs>
  <rect x="2" y="2" width="716" height="196" rx="8" fill="#edf2ee" stroke="#bfcbc5"/>
  <g clip-path="url(#tileClipL)">
    <rect x="28" y="32" width="136" height="136" fill="url(#tileL)"/>
    <rect x="28" y="104" width="136" height="64" fill="#007a4d" opacity="0.09"/>
    <text x="74" y="132" text-anchor="middle" font-family="'JetBrains Mono',ui-monospace,monospace" font-size="78" font-weight="600" fill="#34443f">{</text>
    <text x="120" y="132" text-anchor="middle" font-family="'JetBrains Mono',ui-monospace,monospace" font-size="78" font-weight="600" fill="#34443f">}</text>
    <line x1="60" y1="104" x2="132" y2="104" stroke="#007a4d" stroke-width="3.5"/>
  </g>
  <rect x="28" y="32" width="136" height="136" rx="30" fill="none" stroke="#bfcbc5" stroke-width="2"/>
  <text x="196" y="98" font-family="Inter,'Segoe UI',system-ui,sans-serif" font-size="60" font-weight="800" letter-spacing="-2" fill="#17201d">Tidemark</text>
  <line x1="200" y1="120" x2="470" y2="120" stroke="#007a4d" stroke-width="2"/>
  <text x="200" y="150" font-family="'JetBrains Mono',ui-monospace,monospace" font-size="17"><tspan fill="#007a4d">{{host}}</tspan><tspan fill="#81918a"> &#8594; </tspan><tspan fill="#17201d">prod-db-01</tspan></text>
  <text x="200" y="174" font-family="'JetBrains Mono',ui-monospace,monospace" font-size="9.5" letter-spacing="1.5" fill="#81918a">TEMPLATE VARIABLES, RESOLVED FROM YAML FRONTMATTER</text>
  <g font-family="'JetBrains Mono',ui-monospace,monospace" font-size="10.5" letter-spacing="1">
    <circle cx="556" cy="70" r="4" fill="#007a4d"/><text x="568" y="74" fill="#60706a">RESOLVED</text>
    <circle cx="556" cy="98" r="4" fill="#a46600"/><text x="568" y="102" fill="#60706a">DEFAULT</text>
    <circle cx="556" cy="126" r="4" fill="#c8324c"/><text x="568" y="130" fill="#60706a">MISSING</text>
  </g>
</svg>
